<svg xmlns="http://www.w3.org/2000/svg" version="1.1" xmlns:xlink="http://www.w3.org/1999/xlink" xmlns:svgjs="http://svgjs.dev/svgjs" viewBox="0 0 1422 800"><defs><filter id="uuunion-blur" x="-100%" y="-100%" width="400%" height="400%" color-interpolation-filters="sRGB">
        <feGaussianBlur in="SourceGraphic" stdDeviation="7.5 0" result="blur"></feGaussianBlur>
        <feDropShadow stdDeviation="12.307692307692308" in="blur" dx="10" dy="10" flood-color="#0d9488" flood-opacity="0.25" x="0%" y="0%" width="100%" height="100%"></feDropShadow>
      </filter><filter id="uuunion-blur2" x="-100%" y="-100%" width="400%" height="400%" color-interpolation-filters="sRGB">
        <feGaussianBlur in="SourceGraphic" stdDeviation="7.5 0" result="blur"></feGaussianBlur>
        <feDropShadow stdDeviation="12.307692307692308" in="blur" dx="-10" dy="-10" flood-color="#0d9488" flood-opacity="0.25" x="0%" y="0%" width="100%" height="100%"></feDropShadow>
      </filter><linearGradient gradientTransform="rotate(0, 0.5, 0.5)" x1="50%" y1="0%" x2="50%" y2="100%" id="uuunion-grad"><stop stop-color="#a3e635" offset="10%"></stop><stop stop-color="#0d9488" offset="90%"></stop></linearGradient><linearGradient gradientTransform="rotate(135, 0.5, 0.5)" x1="50%" y1="0%" x2="50%" y2="100%" id="uuunion-grad2"><stop stop-color="#a3e635" offset="25%"></stop><stop stop-color="#0d9488" offset="100%"></stop></linearGradient><linearGradient gradientTransform="rotate(333, 0.5, 0.5)" x1="50%" y1="0%" x2="50%" y2="100%" id="uuunion-grad3"><stop stop-color="#a3e635" offset="0%"></stop><stop stop-color="#0d9488" offset="75%"></stop></linearGradient></defs><path d="M-114.15 -84.22Q-101.67 -83.67 -89.18 -82.87 -76.7 -81.88 -64.22 -80.76 -51.73 -79.59 -39.25 -78.45 -26.77 -77.41 -14.29 -76.54 -1.8 -75.92 10.67 -75.56 23.15 -75.51 35.64 -75.77 48.12 -76.31 60.6 -77.1 73.09 -78.09 85.57 -79.2 98.05 -80.38 110.53 -81.52 123.02 -82.56 135.5 -83.43 147.98 -84.07 160.47 -84.42 172.95 -84.48 185.43 -84.23 197.92 -83.7 210.4 -82.91 222.88 -81.92 235.37 -80.81 247.85 -79.64 260.33 -78.49 272.81 -77.44 285.3 -76.57 297.78 -75.93 310.26 -75.57 322.75 -75.51 335.23 -75.75 347.71 -76.28 360.2 -77.07 372.68 -78.05 385.16 -79.16 397.64 -80.33 410.13 -81.48 422.61 -82.53 435.09 -83.4 447.58 -84.05 460.06 -84.42 472.54 -84.48 485.03 -84.25 497.51 -83.72 509.99 -82.94 522.48 -81.96 534.96 -80.85 547.44 -79.68 559.92 -78.53 572.41 -77.48 584.89 -76.6 597.37 -75.95 609.86 -75.58 622.34 -75.51 634.82 -75.74 647.31 -76.26 659.79 -77.03 672.27 -78.01 684.76 -79.12 697.24 -80.29 709.72 -81.44 722.2 -82.49 734.69 -83.37 747.17 -84.03 759.65 -84.41 772.14 -84.49 784.62 -84.26 797.1 -83.74 809.59 -82.97 822.07 -82 834.55 -80.89 847.04 -79.72 859.52 -78.57 872 -77.52 884.48 -76.63 896.97 -75.97 909.45 -75.59 921.93 -75.5 934.42 -75.72 946.9 -76.23 959.38 -77 971.87 -77.97 984.35 -79.08 996.83 -80.25 1009.32 -81.4 1021.8 -82.46 1034.28 -83.35 1046.76 -84.01 1059.25 -84.4 1071.73 -84.49 1084.21 -84.27 1096.7 -83.77 1109.18 -83.01 1121.66 -82.04 1134.15 -80.94 1146.63 -79.77 1159.11 -78.61 1171.6 -77.55 1184.08 -76.66 1196.56 -75.99 1209.05 -75.6 1221.53 -75.5 1234.01 -75.71 1246.49 -76.21 1258.98 -76.97 1271.46 -77.93 1283.94 -79.03 1296.43 -80.2 1308.91 -81.36 1321.39 -82.42 1333.88 -83.32 1346.36 -83.99 1358.84 -84.39 1371.33 -84.49 1383.81 -84.29 1396.29 -83.79 1408.78 -83.04 1421.26 -82.08 1433.74 -80.98 1446.22 -79.81 1458.71 -78.65 1468.45 -69.26 1464.61 -45.17 1480.54 -29.41 1510.79 -13.66 1550.18 2.09 1591.96 17.85 1628.99 33.61 1654.94 49.36 1665.36 65.12 1658.46 80.88 1635.44 96.64 1600.23 112.4 1558.85 128.15 1518.38 143.91 1485.76 159.67 1466.55 175.43 1464.06 191.18 1478.7 206.94 1507.97 222.7 1546.86 238.46 1588.72 254.22 1626.38 269.97 1653.4 285.73 1665.16 301.49 1659.64 317.25 1637.79 333.01 1603.35 348.76 1562.2 364.52 1521.4 380.28 1487.92 396.04 1467.5 411.79 1463.61 427.55 1476.94 443.31 1505.2 459.07 1543.56 474.83 1585.44 490.58 1623.69 506.34 1651.76 522.1 1664.85 537.86 1660.71 553.61 1640.06 569.37 1606.42 585.13 1565.56 600.89 1524.47 616.65 1490.17 632.4 1468.55 648.16 1463.28 663.92 1475.29 679.68 1502.51 695.44 1540.28 711.19 1582.15 726.95 1620.94 742.71 1650.03 758.47 1664.42 774.22 1661.67 789.98 1642.24 805.74 1609.45 821.5 1568.92 837.26 1527.58 853.01 1492.51 868.77 1469.7 884.53 1463.06 900.29 1480.47 916.87 1474.57 901.01 1461.91 882.9 1449.26 864.6 1436.61 847.34 1423.95 832.31 1411.3 820.51 1398.64 812.75 1385.99 809.56 1373.34 811.16 1360.68 817.43 1348.03 827.96 1335.38 842.02 1322.72 858.66 1310.07 876.75 1297.41 895.06 1284.76 912.34 1272.11 927.43 1259.45 939.3 1246.8 947.14 1234.15 950.41 1221.49 948.9 1208.84 942.71 1196.18 932.26 1183.53 918.26 1170.88 901.66 1158.22 883.58 1145.57 865.27 1132.92 847.95 1120.26 832.81 1107.61 820.88 1094.95 812.96 1082.3 809.6 1069.65 811.02 1056.99 817.12 1044.34 827.5 1031.69 841.44 1019.03 858.01 1006.38 876.07 993.72 894.39 981.07 911.74 968.42 926.93 955.76 938.93 943.11 946.93 930.46 950.38 917.8 949.04 905.15 943.02 892.49 932.72 879.84 918.83 867.19 902.31 854.53 884.27 841.88 865.93 829.23 848.56 816.57 833.32 803.92 821.25 791.26 813.17 778.61 809.64 765.96 810.88 753.3 816.82 740.65 827.05 728 840.87 715.34 857.36 702.69 875.38 690.04 893.72 677.38 911.13 664.73 926.41 652.07 938.55 639.42 946.71 626.77 950.33 614.11 949.18 601.46 943.33 588.81 933.17 576.15 919.4 563.5 902.95 550.84 884.95 538.19 866.6 525.54 849.17 512.88 833.83 500.23 821.63 487.58 813.39 474.92 809.68 462.27 810.75 449.61 816.52 436.96 826.6 424.31 840.31 411.65 856.71 399 874.7 386.35 893.05 373.69 910.51 361.04 925.9 348.39 938.17 335.73 946.48 323.08 950.28 310.42 949.31 297.77 943.62 285.12 933.62 272.46 919.96 259.81 903.6 247.16 885.63 234.5 867.28 221.85 849.79 209.19 834.35 196.54 822.02 183.89 813.62 171.23 809.73 158.58 810.62 145.93 816.22 133.27 826.15 120.62 839.74 107.97 856.07 95.31 874.02 82.66 892.38 70 909.89 57.35 925.38 44.7 937.78 32.04 946.25 19.39 950.23 6.74 949.43 -5.91 943.91 -18.56 934.06 -31.21 920.53 -43.87 904.24 -56.52 886.31 -69.18 867.95 -81.83 850.41 -94.48 834.88 -107.14 822.41 -119.79 813.86 -110.69 799.82 -106.97 785.79 -109.28 771.76 -117.23 757.73 -129.44 743.69 -143.83 729.66 -157.94 715.63 -169.36 701.6 -176.12 687.56 -177.08 673.53 -172.07 659.5 -161.94 645.47 -148.44 631.43 -133.86 617.4 -120.71 603.37 -111.23 589.33 -107.05 575.3 -108.88 561.27 -116.41 547.24 -128.35 533.2 -142.66 519.17 -156.89 505.14 -168.6 491.11 -175.79 477.07 -177.23 463.04 -172.67 449.01 -162.9 434.98 -149.58 420.94 -135 406.91 -121.65 392.88 -111.81 378.85 -107.16 364.81 -108.52 350.78 -115.63 336.75 -127.29 322.72 -141.49 308.68 -155.82 294.65 -167.81 280.62 -175.42 266.59 -177.34 252.55 -173.24 238.52 -163.84 224.49 -150.72 210.46 -136.15 196.42 -122.61 182.39 -112.42 168.36 -107.32 154.33 -108.19 140.29 -114.87 126.26 -126.23 112.23 -140.32 98.2 -154.73 84.16 -166.99 70.13 -175.01 56.1 -177.41 42.07 -173.78 28.03 -164.75 14 -151.85 -0.02 -137.3 -14.05 -123.59 -28.09 -113.06 -42.12 -107.51 -56.15 -107.9 -70.18 -114.15 -84.22" fill="url(#uuunion-grad)"></path><path d="M-114.16 -84.22Q-107.91 -70.18 -107.52 -56.15 -113.07 -42.12 -123.6 -28.09 -137.31 -14.05 -151.86 -0.02 -164.76 14 -173.79 28.03 -177.42 42.07 -175.02 56.1 -167 70.13 -154.74 84.16 -140.33 98.2 -126.24 112.23 -114.88 126.26 -108.2 140.29 -107.33 154.32 -112.43 168.36 -122.62 182.39 -136.16 196.42 -150.73 210.45 -163.85 224.49 -173.25 238.52 -177.35 252.55 -175.43 266.58 -167.82 280.62 -155.83 294.65 -141.5 308.68 -127.3 322.71 -115.64 336.75 -108.53 350.78 -107.17 364.81 -98.99 367.59 -90.81 371.36 -82.63 375.99 -74.45 381.35 -66.27 387.27 -58.09 393.58 -49.91 400.09 -41.72 406.59 -33.54 412.89 -25.36 418.8 -17.18 424.14 -9 428.75 7.35 434.71 23.72 437.5 30.5 435.21 46.08 426.73 56.1 419.01 65.99 410.01 75.77 400.02 85.45 389.38 95.07 378.45 104.65 367.59 114.2 357.17 123.76 347.53 133.34 338.97 142.96 331.72 152.65 325.96 162.42 321.81 172.29 319.28 182.28 318.33 192.38 318.85 202.63 320.63 213.02 323.43 223.56 326.96 234.26 330.9 245.12 334.91 256.13 338.66 267.3 341.82 278.62 344.11 290.07 345.29 301.66 345.16 313.38 343.61 325.19 340.58 337.1 336.08 349.09 330.2 361.14 323.09 373.22 314.95 385.33 306.03 397.43 296.62 409.52 287.02 421.56 277.53 433.54 268.46 445.44 260.07 457.24 252.61 468.92 246.25 480.47 241.15 491.86 237.37 503.08 234.93 514.12 233.77 524.98 233.77 535.63 234.79 546.08 236.6 556.32 238.96 566.35 241.6 576.17 244.25 585.79 246.64 595.21 248.51 604.44 249.64 613.49 249.83 622.37 248.95 631.11 246.92 639.73 243.68 648.23 239.29 656.65 233.8 665.01 227.36 673.33 220.13 681.65 212.32 689.99 204.17 698.38 195.91 706.85 187.78 715.43 180.03 724.15 172.86 733.04 166.45 742.12 160.94 751.44 156.43 761 152.96 770.84 150.53 780.98 149.09 791.44 148.54 802.24 148.73 813.39 149.5 824.91 150.66 836.8 151.99 849.08 153.28 861.73 154.32 874.78 154.93 888.2 154.93 901.99 154.2 916.14 152.63 930.64 150.17 945.46 146.81 960.59 142.58 975.99 137.55 991.65 131.83 1007.52 125.55 1023.58 118.89 1039.78 112.01 1056.09 105.1 1072.47 98.34 1088.87 91.89 1105.25 85.9 1121.56 80.5 1137.76 75.78 1153.81 71.8 1169.65 68.57 1185.24 66.09 1200.54 64.3 1215.51 63.12 1230.1 62.44 1244.28 62.14 1258.01 62.06 1271.26 62.06 1284 61.99 1296.21 61.71 1307.85 61.08 1318.92 60 1329.41 58.39 1339.29 56.19 1348.58 53.37 1357.26 49.95 1372.59 41.23 1386.22 31.23 1397.28 20.18 1407 9.2 1414.89 -0.61 1422 -9.24 1380 -25.62 1347.74 -42.01 1332.68 -58.4 1338.32 -74.79 1363.34 -91.18 1401.95 -107.57 1445.2 -123.95 1483.08 -140.34 1470.1 -140.3 1457.12 -140.24 1444.14 -140.16 1431.15 -140.07 1418.17 -139.98 1405.19 -139.9 1392.21 -139.81 1379.23 -139.74 1366.24 -139.68 1353.26 -139.64 1340.28 -139.62 1327.3 -139.62 1314.32 -139.65 1301.34 -139.69 1288.35 -139.75 1275.37 -139.83 1262.39 -139.91 1249.41 -140 1236.43 -140.09 1223.44 -140.18 1210.46 -140.25 1197.48 -140.31 1184.5 -140.35 1171.52 -140.37 1158.53 -140.37 1145.55 -140.34 1132.57 -140.3 1119.59 -140.24 1106.61 -140.16 1093.62 -140.08 1080.64 -139.99 1067.66 -139.9 1054.68 -139.81 1041.7 -139.74 1028.71 -139.68 1015.73 -139.64 1002.75 -139.62 989.77 -139.62 976.79 -139.65 963.8 -139.69 950.82 -139.75 937.84 -139.83 924.86 -139.91 911.88 -140 898.89 -140.09 885.91 -140.18 872.93 -140.25 859.95 -140.31 846.97 -140.35 833.98 -140.37 821 -140.37 808.02 -140.34 795.04 -140.3 782.06 -140.24 769.07 -140.16 756.09 -140.08 743.11 -139.99 730.13 -139.9 717.15 -139.82 704.16 -139.74 691.18 -139.68 678.2 -139.64 665.22 -139.62 652.24 -139.62 639.26 -139.65 626.27 -139.69 613.29 -139.75 600.31 -139.83 587.33 -139.91 574.35 -140 561.36 -140.09 548.38 -140.17 535.4 -140.25 522.42 -140.31 509.44 -140.35 496.45 -140.37 483.47 -140.37 470.49 -140.34 457.51 -140.3 444.53 -140.24 431.54 -140.17 418.56 -140.08 405.58 -139.99 392.6 -139.9 379.62 -139.82 366.63 -139.74 353.65 -139.68 340.67 -139.64 327.69 -139.62 314.71 -139.62 301.72 -139.65 288.74 -139.69 275.76 -139.75 262.78 -139.82 249.8 -139.91 236.81 -140 223.83 -140.09 210.85 -140.17 197.87 -140.25 184.89 -140.3 171.9 -140.35 158.92 -140.37 145.94 -140.37 132.96 -140.35 119.98 -140.3 106.99 -140.24 94.01 -140.17 81.03 -140.08 68.05 -139.99 55.07 -139.9 42.08 -139.82 29.1 -139.75 16.12 -139.69 3.14 -139.64 -9.83 -139.62 -22.82 -139.62 -35.8 -139.64 -48.78 -139.69 -61.76 -139.75 -74.74 -139.82 -87.72 -139.91 -100.71 -140 -113.69 -140.08 -126.67 -140.17 -139.65 -140.24 -152.63 -140.3 -164.17 -133.36 -145.02 -112.36 -128.05 -98.31 -114.16 -84.22" fill="url(#uuunion-grad2)" filter="url(#uuunion-blur)"></path><path d="M1467.89 290.42Q1477.14 288.75 1486.39 288.03 1495.64 288.27 1504.89 289.47 1514.14 291.6 1523.39 294.59 1532.64 298.35 1541.89 302.76 1551.14 307.7 1560.39 313.01 1569.64 318.53 1578.89 324.09 1588.15 329.53 1597.4 334.68 1606.65 339.39 1615.9 343.51 1569.23 361.89 1521.4 380.28 1483.49 398.66 1464.27 417.05 1468.2 435.43 1494.38 453.82 1536.73 472.2 1585.44 490.58 1629.23 508.97 1657.96 527.35 1664.96 545.74 1648.61 564.12 1612.71 582.5 1565.56 600.89 1518.1 619.27 1481.32 637.66 1463.74 656.04 1469.43 674.42 1497.08 692.81 1540.28 711.19 1589.02 729.58 1632 747.96 1659.28 766.35 1664.53 784.73 1646.53 803.11 1609.45 821.5 1561.89 839.88 1514.87 858.27 1479.27 876.65 1463.35 895.03 1472.29 901.83 1453.45 870.6 1441.84 854.28 1430.23 839.43 1418.63 826.89 1407.02 817.4 1395.41 811.49 1383.81 809.5 1372.2 811.54 1360.59 817.49 1348.99 827.03 1337.38 839.59 1325.77 854.47 1314.17 870.8 1302.56 887.66 1290.95 904.09 1279.35 919.13 1267.74 931.94 1256.13 941.77 1244.53 948.07 1232.92 950.48 1221.31 948.85 1209.71 943.28 1198.1 934.09 1186.49 921.81 1174.89 907.13 1163.28 890.91 1151.67 874.05 1140.07 857.54 1128.46 842.31 1116.85 829.24 1105.25 819.07 1093.64 812.39 1082.03 809.58 1070.43 810.79 1058.82 815.96 1047.21 824.8 1035.61 836.8 1024 851.26 1012.39 867.37 1000.79 884.2 989.18 900.8 977.57 916.2 965.97 929.53 954.36 940.03 942.75 947.09 931.15 950.31 919.54 949.51 907.93 944.73 896.33 936.25 884.72 924.55 873.11 910.3 861.51 894.32 849.9 877.52 838.29 860.86 826.69 845.29 815.08 831.71 803.47 820.89 791.87 813.46 780.26 809.83 768.65 810.21 757.04 814.59 745.44 822.71 733.83 834.11 722.22 848.13 710.62 863.97 699.01 880.74 687.4 897.46 675.8 913.18 664.19 927 652.58 938.13 640.98 945.94 629.37 949.97 617.76 950 606.16 946.03 594.55 938.28 582.94 927.19 571.34 913.4 559.73 897.7 548.12 880.99 536.52 864.22 524.91 848.35 513.3 834.3 501.7 822.86 490.09 814.68 478.48 810.25 466.88 809.8 455.27 813.37 443.66 820.76 432.06 831.53 420.45 845.07 408.84 860.61 397.24 877.27 385.63 894.07 374.02 910.08 362.42 924.36 350.81 936.1 339.2 944.63 327.6 949.47 315.99 950.33 304.38 947.16 292.78 940.16 281.17 929.71 269.56 916.42 257.96 901.04 246.35 884.46 234.74 867.62 223.14 851.49 211.53 837 199.92 824.96 188.32 816.07 176.71 810.84 165.1 809.56 153.5 812.32 141.89 818.95 130.28 829.07 118.68 842.1 107.07 857.3 95.46 873.8 83.86 890.66 72.25 906.9 60.64 921.61 49.04 933.93 37.43 943.17 22.26 944.29 21.69 929.11 22.93 918.42 22.33 907.73 19.95 897.04 15.96 886.36 7.82 870.33 5.46 865 13.81 856.39 22.46 844.08 31.53 828.5 41.11 810.22 51.27 790.02 62.04 768.74 73.44 747.29 85.45 726.59 98.04 707.48 111.14 690.7 124.69 676.85 138.58 666.35 152.72 659.39 167 655.97 181.32 655.87 195.58 658.67 209.68 663.8 223.55 670.54 237.13 678.09 250.38 685.62 263.27 692.32 275.81 697.41 288.01 700.26 299.91 700.35 311.57 697.35 323.07 691.11 334.48 681.68 345.89 669.31 357.4 654.41 369.09 637.53 381.05 619.33 393.35 600.55 406.05 581.95 419.19 564.25 432.78 548.13 446.83 534.15 461.31 522.72 476.17 514.12 491.33 508.44 506.72 505.58 522.22 505.3 537.7 507.19 553.06 510.74 568.15 515.33 582.84 520.29 597.01 524.95 610.55 528.66 623.38 530.86 635.41 531.06 646.62 528.92 656.98 524.24 666.52 516.97 675.28 507.24 683.34 495.28 690.83 481.5 697.86 466.38 704.62 450.46 711.28 434.35 718.04 418.64 725.09 403.87 732.64 390.55 740.88 379.05 750 369.66 760.14 362.5 768.95 361.86 777.8 362.55 786.7 364.5 795.65 367.57 804.66 371.62 813.72 376.44 822.83 381.81 832.01 387.49 841.26 393.24 850.57 398.78 859.95 403.89 869.4 408.33 878.92 411.9 888.51 414.43 898.19 415.79 907.94 415.88 917.77 414.68 927.69 412.18 937.69 408.42 947.77 403.52 957.94 397.61 968.19 390.85 978.54 383.46 988.97 375.66 999.49 367.68 1010.1 359.78 1020.8 352.19 1031.59 345.13 1042.46 338.82 1053.43 333.44 1064.49 329.12 1075.63 325.99 1086.87 324.09 1098.19 323.44 1109.59 324.02 1121.09 325.76 1132.66 328.54 1144.32 332.21 1156.06 336.59 1167.87 341.46 1179.77 346.62 1191.73 351.82 1203.77 356.83 1215.88 361.43 1228.06 365.4 1240.3 368.57 1252.61 370.77 1264.97 371.89 1277.39 371.84 1289.86 370.59 1302.38 368.14 1314.95 364.55 1327.56 359.9 1340.21 354.33 1352.89 347.99 1365.6 341.07 1378.34 333.78 1391.1 326.34 1403.88 318.98 1416.67 311.91 1429.47 305.34 1442.28 299.47 1455.09 294.45 1467.89 290.42" fill="url(#uuunion-grad3)" filter="url(#uuunion-blur2)"></path></svg>